# xmcd
#
# Track frame offsets:
#	150
#	13646
#	27560
#	41697
#	56809
#	71308
#	84790
#	97283
#	110361
#	122993
#	138857
#	153049
#	167001
#	180396
#	193446
#
# Disc length: 2762 seconds
#
# Revision: 0
# Processed by: cddbd v1.5.2PL0 Copyright (c) Steve Scherf et al.
# Submitted via: EasyCDDAExtractor 16.0.8.2
#
DISCID=c70ac80f
DTITLE=Βοσκόπουλος Τόλης - Αγωνία- 1968, Τ. Βοσκόπουλος
DYEAR=1993
DGENRE=Ελαφρολαϊκή
TTITLE0=Βοσκόπουλος Τόλης - Αγωνία [Γ. Ζαμπέτας-Χαρ. Βασιλειάδης]
TTITLE1=Βοσκόπουλος Τόλης-Διαμαντοπούλου Μπέμπα - Δειλινό σε γνώρισα [Θ. Δερβε
TTITLE1=νιώτης-Γ. Σαμολαδάς]
TTITLE2=Βοσκόπουλος Τόλης - Παλιά αγάπη [Γ. Ζαμπέτας]
TTITLE3=Βοσκόπουλος Τόλης-Διαμαντοπούλου Μπέμπα - Θέλω βαριά διπλοπενιά [Ζακ. 
TTITLE3=Ιακωβίδης-Η. Λυμπερόπουλος]
TTITLE4=Βοσκόπουλος Τόλης - Σε μονοπάτι μακρινό [Γ. Ζαμπέτας-Χαρ. Βασιλειάδης]
TTITLE5=Βοσκόπουλος Τόλης-Διαμαντοπούλου Μπέμπα - Έτσι είναι μπαρμπα Γιάννη[ΝΠ
TTITLE5=ετρίδης/ΓΒασιλόπουλος-ΒΑτραΐδης]
TTITLE6=Βοσκόπουλος Τόλης - Δειλινό μού φέρανε το δικό σου γράμμα[Ν. Πετρίδης-
TTITLE6=Σ. Ιωαννίδης]
TTITLE7=Βοσκόπουλος Τόλης-Δούκισσα - Οι ουρανοί [Γ. Ζαμπέτας-Η. Λυμπερόπουλος]
TTITLE8=Βοσκόπουλος Τόλης-Διαμαντοπούλου Μπέμπα - Αν είσαι αριστοκράτισσα [Ζακ
TTITLE8=Ιακωβίδης-Η.Λυμπερόπουλος]
TTITLE9=Βοσκόπουλος Τόλης-Διαμαντοπούλου Μπέμπα - Έχασες το τραίνο [Γ. Ζαμπέτα
TTITLE9=ς-Δ.Τζεφρώνης]
TTITLE10=Βοσκόπουλος Τόλης-Διαμαντοπούλου Μπέμπα - Δεν είσαι κύριος [Γ. Ζαμπέτ
TTITLE10=ας-Δ.Τζεφρώνης]
TTITLE11=Βοσκόπουλος Τόλης-Διαμαντοπούλου Μπέμπα - Όσες βρω καρδιές θα κάψω [Θ
TTITLE11=Δερβενιώτης-Γ. Σαμιολαδάς]
TTITLE12=Βοσκόπουλος Τόλης - Βρέχει, ψιλοβρέχει [Ζακ. Ιακωβίδης-Η.Λυμπερόπουλο
TTITLE12=ς]
TTITLE13=Βοσκόπουλος Τόλης - Άσε στην πόρτα το κλειδί[Ζ.Ιακωβίδης/Μ.Τραϊφόρος-
TTITLE13=Ν.Ελευθερίου]
TTITLE14=Βοσκόπουλος Τόλης - Γιατί, γιατί, γιατί [Ζ.Ιακωβίδης/Μ.Τραϊφόρος-Ν.Ελ
TTITLE14=ευθερίου]
EXTD=
EXTT0=
EXTT1=
EXTT2=
EXTT3=
EXTT4=
EXTT5=
EXTT6=
EXTT7=
EXTT8=
EXTT9=
EXTT10=
EXTT11=
EXTT12=
EXTT13=
EXTT14=
PLAYORDER=
